<?xml version="1.0" standalone="no"?>
<!DOCTYPE svg PUBLIC "-//W3C//DTD SVG 1.1//EN" "http://www.w3.org/Graphics/SVG/1.1/DTD/svg11.dtd" >
<svg xmlns="http://www.w3.org/2000/svg">
<metadata></metadata>
<defs>
<font id="aaux_officeboldregular" horiz-adv-x="1040" >
<font-face units-per-em="2048" ascent="1638" descent="-410" />
<missing-glyph horiz-adv-x="450" />
<glyph horiz-adv-x="2048" />
<glyph horiz-adv-x="2048" />
<glyph unicode="&#xd;" horiz-adv-x="450" />
<glyph unicode=" "  horiz-adv-x="450" />
<glyph unicode="&#x09;" horiz-adv-x="450" />
<glyph unicode="&#xa0;" horiz-adv-x="450" />
<glyph unicode="!" horiz-adv-x="675" d="M164 125q0 72 51 123t125 51q72 0 122 -51t50 -123t-50 -123t-122 -51q-74 0 -125 51t-51 123zM211 768v641q0 20 20 21h213q20 0 21 -21v-641l-33 -317q0 -20 -20 -21h-148q-20 0 -20 21z" />
<glyph unicode="&#x22;" horiz-adv-x="782" d="M123 1491h227l-28 -401q-6 -92 -86 -93q-35 0 -58.5 27t-25.5 66zM432 1491h227l-28 -401q-6 -92 -86 -93q-35 0 -58.5 27t-25.5 66z" />
<glyph unicode="#" horiz-adv-x="1175" d="M82 430l24 156q4 20 25 20h180l33 217h-180q-20 0 -17 21l25 155q4 20 25 21h180l61 389q2 20 23 21h155q20 0 19 -21l-62 -389h138l61 389q4 20 25 21h153q23 0 19 -21l-62 -389h180q21 -1 17 -21l-25 -155q-2 -20 -22 -21h-180l-35 -217h180q20 0 16 -20l-24 -156 q-2 -20 -23 -20h-180l-61 -390q-4 -20 -25 -20h-156q-20 0 -16 20l61 390h-139l-61 -390q-2 -20 -23 -20h-155q-20 0 -19 20l62 390h-181q-20 0 -16 20zM508 606h137l35 217h-139z" />
<glyph unicode="$" horiz-adv-x="1081" d="M143 137l88 129q12 16 29 4q106 -68 201 -92v449q-2 0 -4 2l-6 2q-137 78 -195 141q-82 88 -92 221q-2 16 -2 37q0 205 164 293q59 33 135 45v115q0 20 20 20h129q20 0 21 -20v-113q145 -20 268 -104q18 -10 6 -29l-88 -127q-12 -16 -29 -6q-68 47 -157 70v-410h2l4 -2 q150 -72 215 -148q84 -95 86 -245q0 -104 -57.5 -199.5t-149.5 -138.5q-51 -23 -100 -35v-121q0 -20 -21 -20h-129q-20 0 -20 20v113q-170 20 -311 121q-18 12 -7 28zM373 1032q0 -115 88 -174v313q-88 -37 -88 -139zM631 201h4q94 57 94 170q-2 109 -98 170v-340z" />
<glyph unicode="%" horiz-adv-x="1449" d="M82 967q0 178 47 274q74 156 227 156q154 0 228 -156q47 -98 47 -274t-47 -275q-74 -156 -228 -155q-154 0 -227 155q-47 98 -47 275zM242 967q0 -156 31.5 -230.5t82.5 -74.5t84 76.5t33 228.5t-32.5 228.5t-84.5 76.5q-49 0 -81.5 -74t-32.5 -231zM416 -16l465 1390 q8 20 26 21h113q16 -1 12 -21l-465 -1390q-6 -20 -26 -21h-111q-16 0 -14 21zM817 397q0 178 47 275q76 156 228 155q156 0 229 -155q47 -99 47 -275t-47 -274q-74 -156 -229 -156q-154 0 -228 156q-47 98 -47 274zM975 397q0 -152 33.5 -228.5t83.5 -76.5q51 0 83.5 76.5 t32.5 228.5t-32.5 227.5t-83.5 75.5q-49 0 -83 -75.5t-34 -227.5z" />
<glyph unicode="&#x26;" horiz-adv-x="1288" d="M133 383v10q0 233 180 428q-84 176 -84 291q0 133 70 225q78 102 211 103q127 0 213 -83t86 -206q0 -115 -66 -211q-45 -66 -155 -164q86 -152 178 -272l16 -21q14 86 15 197q0 23 20 22h182q20 0 21 -22q0 -242 -72 -404q60 -69 248 -278h-303q-41 55 -76 96 q-125 -113 -285 -112q-162 0 -276 108q-123 115 -123 293zM338 369q0 -94 49 -147.5t121 -53.5q96 0 172 88q-145 182 -260 377q-82 -113 -82 -256v-8zM451 1137q0 -84 45 -185q137 119 137 236q0 45 -26.5 75.5t-61.5 30.5q-94 0 -94 -157z" />
<glyph unicode="'" horiz-adv-x="473" d="M123 1491h227l-28 -401q-6 -92 -86 -93q-35 0 -58.5 27t-25.5 66z" />
<glyph unicode="(" horiz-adv-x="542" d="M102 573q0 477 220 926q8 16 20 8l123 -71q12 -4 6 -21q-82 -231 -117 -393q-45 -209 -45 -449t45 -448q35 -162 117 -393q6 -16 -6 -21l-123 -71q-12 -8 -20 8q-219 449 -220 925z" />
<glyph unicode=")" horiz-adv-x="542" d="M72 -268q84 231 116 393q45 209 45 448q0 240 -45 449q-33 162 -116 393q-6 16 6 21l123 71q14 8 20 -8q219 -449 219 -926t-219 -925q-6 -16 -20 -8l-123 71q-12 4 -6 21z" />
<glyph unicode="*" horiz-adv-x="991" d="M102 1178l23 71q23 55 76 35l211 -82q-12 86 -13 228q0 59 60 59h71q61 0 62 -59q0 -141 -14 -228l208 80q20 10 43 2q25 -8 37 -35l23 -75q12 -61 -45 -72l2 2l-219 -60l141 -172q20 -20 16 -47t-28 -41l4 2l-62 -45q-47 -31 -80 15q-86 113 -124 192q129 -162 104 -190 q-18 -23 -227 -2q-14 -20 -39 -25q-25 -2 -43 12v-2l-60 45q-25 16 -24 48q0 18 12 34q84 113 145 176l-217 58q-27 6 -39 29.5t-4 48.5v-2z" />
<glyph unicode="+" horiz-adv-x="915" d="M92 641v156q0 20 21 20h247v248q0 20 21 20h156q20 0 20 -20v-248h246q20 0 20 -20v-156q0 -20 -20 -20h-246v-246q0 -20 -20 -21h-156q-20 0 -21 21v246h-247q-20 0 -21 20z" />
<glyph unicode="," horiz-adv-x="518" d="M154 141q0 41 30.5 71t73.5 30q45 0 76 -30t31 -71v-108l-168 -309h-43v417z" />
<glyph unicode="-" horiz-adv-x="696" d="M92 641v156q0 20 21 20h471q20 0 20 -20v-156q0 -20 -20 -20h-471q-20 0 -21 20z" />
<glyph unicode="." horiz-adv-x="530" d="M123 111q0 59 42 101t101 42q57 0 99.5 -42t42.5 -101t-42 -100.5t-100 -41.5q-59 0 -101 41t-42 101z" />
<glyph unicode="/" horiz-adv-x="774" d="M41 -156l485 1741h228l-484 -1741h-229z" />
<glyph unicode="0" horiz-adv-x="1017" d="M102 715q0 295 66 456q106 266 342 267q233 0 340 -267q65 -161 65 -456t-65 -457q-106 -264 -340 -264q-236 0 -342 264q-66 162 -66 457zM344 715q0 -217 27 -336q43 -195 139 -195q94 0 137 195q27 119 27 336t-27 336q-43 197 -137 196q-96 0 -139 -196 q-27 -119 -27 -336z" />
<glyph unicode="1" horiz-adv-x="944" d="M102 1147q-12 18 7 29l391 254h155v-1233h146q20 0 20 -21v-156q0 -20 -20 -20h-555q-20 0 -21 20v156q0 20 21 21h174v958l-223 -115q-16 -12 -29 4z" />
<glyph unicode="2" horiz-adv-x="1032" d="M102 63q0 92 84 265q90 184 222 340q174 205 215 266q47 72 47 131q0 88 -52 133q-41 35 -88 35q-98 0 -215 -189q-8 -20 -26 -10l-142 66q-18 8 -10 26v2q115 311 393 312q154 0 261 -97q118 -104 118 -278q0 -111 -73 -231q-51 -78 -235.5 -300.5t-231.5 -336.5h491 q20 0 21 -21v-156q0 -20 -21 -20h-702q-55 0 -56 63z" />
<glyph unicode="3" horiz-adv-x="1021" d="M123 324q-8 18 10 26l141 66q20 10 27 -10q80 -209 205 -209q68 0 110.5 60t42.5 163q0 96 -51 166q-47 61 -100 61h-107q-20 0 -20 21v155q0 20 20 21h107q45 0 88 56t43 138q0 86 -42 142.5t-99 56.5q-66 0 -113 -49q-35 -37 -84 -131q-8 -18 -27 -10l-141 63 q-18 10 -10 29q45 139 146.5 221t228.5 82q162 0 272.5 -120t110.5 -284q0 -84 -53.5 -167t-131.5 -119q106 -45 162 -170q41 -88 41 -162q0 -172 -104 -297q-115 -135 -289 -135q-139 0 -247.5 95t-135.5 241z" />
<glyph unicode="4" horiz-adv-x="1032" d="M82 334v196l502 908q10 16 28 6l144 -80q18 -10 8 -29l-442 -805h264l26 369q2 20 21 21h155q20 0 21 -21v-369h80q20 0 20 -20v-156q0 -20 -20 -20h-80v-324q0 -20 -21 -20h-200q-20 0 -21 20v324h-485z" />
<glyph unicode="5" horiz-adv-x="1021" d="M102 319q-8 18 11 27l141 66q18 8 27 -11q84 -211 215 -211q106 0 145 107q20 61 21 186q0 287 -166 287q-78 0 -158 -100l-201 55v705h666q20 0 20 -21v-162q0 -20 -20 -20h-428v-307q68 45 121 51q20 2 41 2q190 0 290 -174q72 -123 72 -316t-74 -317 q-106 -178 -329 -178q-299 0 -394 331z" />
<glyph unicode="6" horiz-adv-x="999" d="M82 444q0 227 131 487.5t362 506.5q10 16 29 6l144 -80q18 -10 8 -29q-250 -283 -342 -501q92 80 176 65q125 -23 206 -153t81 -302q0 -197 -101 -321q-109 -135 -297 -135t-297 135q-100 125 -100 321zM324 442q0 -102 46 -175.5t111 -73.5q63 0 109.5 73.5t46.5 175.5 q0 104 -46 178t-110 74q-66 0 -111.5 -73.5t-45.5 -178.5z" />
<glyph unicode="7" horiz-adv-x="962" d="M102 1087v343h779v-138q-14 -20 -39 -55q-152 -233 -258 -590q-104 -348 -111 -637q-2 -20 -22 -20h-197q-23 0 -23 20q8 276 117 627q98 324 246 590h-295v-140q0 -23 -20 -22h-156q-20 0 -21 22z" />
<glyph unicode="8" horiz-adv-x="958" d="M82 444q0 92 49 189q59 119 164 162q-94 41 -143 133q-37 70 -37 135q0 156 105.5 266.5t258.5 110.5q156 0 260.5 -110.5t104.5 -266.5q0 -66 -37 -135q-49 -92 -143 -133q104 -43 163 -162q50 -97 50 -189q0 -174 -101 -307q-115 -150 -297 -149q-182 0 -297 149 q-100 133 -100 307zM322 442q0 -102 46 -175.5t111 -73.5q66 0 112 73.5t46 175.5q0 104 -46 178t-112 74t-111.5 -73.5t-45.5 -178.5zM352 1063q0 -74 37 -126t90 -52t90 52t37 126t-37 126t-90 52t-90 -52t-37 -126z" />
<glyph unicode="9" horiz-adv-x="999" d="M102 989q0 197 101 322q109 135 297 135t297 -135q100 -125 100 -322q0 -225 -131 -486t-363 -505q-10 -18 -26 -8l-146 82q-18 10 -8 26q252 285 342 504q-92 -82 -176 -65q-125 20 -206 150t-81 302zM342 991q0 -104 46 -178t112 -74q63 0 109 74t46 178t-46 178 t-109 74q-66 0 -112 -73.5t-46 -178.5z" />
<glyph unicode=":" horiz-adv-x="696" d="M174 125q0 72 51 123t125 51q72 0 122 -51t50 -123t-50 -123t-122 -51q-74 0 -125 51t-51 123zM174 664q0 74 51 125t125 51q72 0 122 -51t50 -125q0 -70 -50 -121t-122 -51q-74 0 -125 50t-51 122z" />
<glyph unicode=";" horiz-adv-x="634" d="M143 664q0 74 51.5 125t124.5 51q72 0 122.5 -51t50.5 -125q0 -70 -50.5 -121t-122.5 -51q-74 0 -125 50t-51 122zM168 154q0 63 42 104t105 41q61 0 100.5 -41t39.5 -104v-111l-168 -319h-119v430z" />
<glyph unicode="&#x3c;" horiz-adv-x="874" d="M123 565v238l629 348v-250l-482 -217l482 -219v-250z" />
<glyph unicode="=" horiz-adv-x="862" d="M123 387v148q0 20 20 20h576q20 0 20 -20v-148q0 -20 -20 -20h-576q-20 0 -20 20zM123 819v148q0 23 20 22h576q20 0 20 -22v-148q0 -20 -20 -20h-576q-20 0 -20 20z" />
<glyph unicode="&#x3e;" horiz-adv-x="833" d="M102 215v250l482 219l-482 217v250l629 -348v-238z" />
<glyph unicode="?" horiz-adv-x="964" d="M123 1171q104 268 369 269q166 0 262 -109q88 -102 88 -256q0 -80 -47 -157q-47 -63 -95 -130q-123 -170 -118 -337q0 -20 -21 -21h-147q-20 0 -21 21q-8 51 -8 96q0 184 131 360q78 106 88 168q2 14 2 31q0 137 -114 137q-102 0 -152 -135q-6 -18 -25 -12l-178 49 q-20 6 -14 26zM313 125q0 72 51.5 123t122.5 51q72 0 123.5 -51t51.5 -123t-51.5 -123t-123.5 -51t-123 51t-51 123z" />
<glyph unicode="@" horiz-adv-x="1327" d="M123 483q0 186 59 373q70 221 217 385q176 199 381 199q66 0 127 -23q222 -79 279 -366q18 -90 18 -193q0 -156 -41 -315l-24 -545q0 -20 -21 -21l-114 5q-18 0 -19 20l12 227q-84 -172 -198 -223q-51 -23 -103 -22q-45 0 -86 16q-86 37 -134 134t-48 231q0 117 39 241 q47 145 139 256q113 137 246 137q43 0 84 -18q82 -35 115 -156q4 111 -17 199q-39 178 -170 242q-35 16 -76 16q-57 0 -122 -29q-213 -98 -334 -432q-57 -158 -58 -323q0 -80 15 -154q25 -139 110 -244q12 -16 4 -28l-65 -86q-14 -14 -29 -4q-141 131 -174 346 q-12 74 -12 155zM588 367q0 -199 96 -240q41 -16 88 6q127 59 193 268q37 119 36 226q0 182 -96 223q-39 16 -88 -4q-129 -61 -199 -283q-31 -98 -30 -196z" />
<glyph unicode="A" horiz-adv-x="1202" d="M31 20v156q0 20 20 21h94l349 1233h215l348 -1233h94q20 0 20 -21v-156q0 -20 -20 -20h-424q-20 0 -20 20v156q0 20 20 21h80l-45 202h-322l-45 -202h80q20 0 21 -21v-156q0 -20 -21 -20h-424q-20 0 -20 20zM485 596h232l-82 365l-33 206l-33 -206z" />
<glyph unicode="B" horiz-adv-x="1142" d="M82 20v156q0 20 20 21h93v1036h-93q-20 0 -20 20v156q0 20 20 21h406q500 0 500 -394q0 -86 -41 -162q-45 -82 -125 -122q219 -99 219 -328q0 -242 -187 -352q-119 -72 -331 -72h-441q-20 0 -20 20zM440 215h103q135 0 198 43q76 51 76 172q0 123 -76 172q-55 35 -198 35 h-103v-422zM440 821h68q129 0 184 33q72 43 72 160q0 152 -117 186q-53 14 -139 14h-68v-393z" />
<glyph unicode="C" horiz-adv-x="1060" d="M82 715q0 309 92 479q135 252 416 252q215 0 368 -191v-233q0 -20 -20 -21h-156q-20 0 -20 21v143q-70 68 -172 68q-125 0 -199 -139q-65 -119 -65 -371v-8q0 -258 65 -379q74 -139 199 -139q102 0 172 67v144q0 20 20 20h156q20 0 20 -20v-234q-154 -190 -368 -190 q-281 0 -416 252q-92 170 -92 479z" />
<glyph unicode="D" horiz-adv-x="1132" d="M61 20v156q0 20 21 21h92v1036h-92q-20 0 -21 20v156q0 20 21 21h448q348 0 455 -211q66 -131 66 -504q0 -195 -13 -309q-23 -215 -151 -314q-121 -92 -357 -92h-448q-20 0 -21 20zM420 217h110q143 0 196.5 40t68.5 171q12 111 12 287t-12 286q-14 133 -67.5 172 t-199.5 39h-108v-995z" />
<glyph unicode="E" horiz-adv-x="1050" d="M82 20v156q0 20 20 21h93v1036h-93q-20 0 -20 20v156q0 20 20 21h846v-338q0 -20 -20 -21h-156q-20 0 -20 21v114h-312v-362h389q20 0 21 -21v-155q0 -20 -21 -21h-389v-424h312v115q0 20 20 20h156q20 0 20 -20v-338h-846q-20 0 -20 20z" />
<glyph unicode="F" horiz-adv-x="1009" d="M82 20v156q0 20 20 21h93v1036h-93q-20 0 -20 20v156q0 20 20 21h846v-338q0 -20 -20 -21h-156q-20 0 -20 21v114h-312v-362h389q20 0 21 -21v-155q0 -20 -21 -21h-389v-450h123q20 0 21 -21v-156q0 -20 -21 -20h-461q-20 0 -20 20z" />
<glyph unicode="G" horiz-adv-x="1075" d="M82 715q0 307 92 479q135 252 416 252q215 0 368 -191v-229q0 -20 -20 -20h-156q-20 0 -20 20v131q-74 76 -172 76q-123 0 -199 -139q-65 -117 -65 -371v-8q0 -258 65 -379q74 -139 199 -139q86 0 147 63v326h-170q-20 0 -20 20v156q0 20 20 20h406v-608 q-156 -190 -383 -190q-281 0 -416 252q-92 170 -92 479z" />
<glyph unicode="H" horiz-adv-x="1269" d="M82 20v156q0 20 20 21h93v1036h-93q-20 0 -20 20v156q0 20 20 21h430q20 0 21 -21v-156q0 -20 -21 -20h-92v-389h391v389h-92q-20 0 -20 20v156q0 20 20 21h428q20 0 21 -21v-156q0 -20 -21 -20h-90v-1036h90q20 0 21 -21v-156q0 -20 -21 -20h-428q-20 0 -20 20v156 q0 20 20 21h92v450h-391v-450h92q20 0 21 -21v-156q0 -20 -21 -20h-430q-20 0 -20 20z" />
<glyph unicode="I" horiz-adv-x="700" d="M82 20v156q0 20 20 21h125v1036h-125q-20 0 -20 20v156q0 20 20 21h496q20 0 20 -21v-156q0 -20 -20 -20h-125v-1036h125q20 0 20 -21v-156q0 -20 -20 -20h-496q-20 0 -20 20z" />
<glyph unicode="J" horiz-adv-x="940" d="M31 305q-1 3 -1 6q0 13 17 17l193 37q18 4 22 -17q33 -147 150 -147q106 0 139 84q20 47 20 168v780h-252q-20 0 -20 20v156q0 20 20 21h498v-977q0 -195 -65 -299q-102 -170 -340 -170q-313 0 -381 321z" />
<glyph unicode="K" horiz-adv-x="1148" d="M82 20v156q0 20 20 21h93v1036h-93q-20 0 -20 20v156q0 20 20 21h410q20 0 20 -21v-156q0 -20 -20 -20h-72v-438l336 635h262q20 0 21 -21v-156q0 -20 -21 -20h-112l-271 -485l338 -551h115q20 0 20 -21v-156q0 -20 -20 -20h-274l-394 684v-487h72q20 0 20 -21v-156 q0 -20 -20 -20h-410q-20 0 -20 20z" />
<glyph unicode="L" horiz-adv-x="1005" d="M82 20v156q0 20 20 21h93v1036h-93q-20 0 -20 20v156q0 20 20 21h430q20 0 21 -21v-156q0 -20 -21 -20h-92v-1010h326l14 129q2 20 23 19l153 -17q21 -2 19 -22l-33 -332h-840q-20 0 -20 20z" />
<glyph unicode="M" horiz-adv-x="1482" d="M82 20v156q0 20 20 21h93l34 1036h-108q-20 0 -21 20v156q0 20 21 21h352l238 -746l30 -125l31 125l238 746h352q20 0 20 -21v-156q0 -20 -20 -20h-109l35 -1036h92q20 0 21 -21v-156q0 -20 -21 -20h-426q-20 0 -20 20v156q0 20 20 21h95l-11 559l15 239l-62 -239 l-188 -559h-123l-188 559l-62 239l14 -239l-10 -559h94q20 0 21 -21v-156q0 -20 -21 -20h-426q-20 0 -20 20z" />
<glyph unicode="N" horiz-adv-x="1253" d="M82 20v156q0 20 20 21h93v1036h-93q-20 0 -20 20v156q0 20 20 21h291l352 -676l80 -187l-8 191v475h-88q-20 0 -20 20v156q0 20 20 21h422q20 0 20 -21v-156q0 -20 -20 -20h-90v-1233h-184l-388 752l-63 161l10 -163v-553h88q20 0 21 -21v-156q0 -20 -21 -20h-422 q-20 0 -20 20z" />
<glyph unicode="O" horiz-adv-x="1093" d="M61 715q0 309 86 479q131 252 400 252q270 0 397 -252q88 -172 88 -479q0 -303 -88 -477q-127 -254 -397 -254t-400 254q-86 174 -86 477zM309 715q0 -250 62 -379q68 -139 176 -139q111 0 178 139q59 125 59 379t-59 381q-66 137 -178 137q-111 0 -176 -137 q-61 -129 -62 -381z" />
<glyph unicode="P" horiz-adv-x="1083" d="M82 20v156q0 20 20 21h93v1036h-93q-20 0 -20 20v156q0 20 20 21h412q225 0 332 -64q186 -110 186 -352q0 -236 -186 -348q-113 -68 -332 -68h-74v-401h123q20 0 21 -21v-156q0 -20 -21 -20h-461q-20 0 -20 20zM440 813h74q137 0 197 35q77 45 77 166q0 119 -75 164 q-57 34 -191 34h-8h-74v-399z" />
<glyph unicode="Q" horiz-adv-x="1093" d="M61 715q0 309 86 479q131 252 400 252q270 0 397 -252q88 -172 88 -479q0 -336 -108 -516l102 -133q10 -18 -8 -31l-123 -80q-7 -5 -13 -5q-9 0 -16 11q-31 53 -59 107q-111 -84 -260 -84q-270 0 -400 254q-86 174 -86 477zM309 715q0 -250 62 -379q68 -139 176 -139 q70 0 123 57q-53 41 -123 49q-20 2 -19 23l7 151q0 20 24 19q113 -12 193 -90q32 110 32 309q0 254 -59 381q-66 137 -178 137q-111 0 -176 -137q-61 -129 -62 -381z" />
<glyph unicode="R" horiz-adv-x="1132" d="M82 20v156q0 20 20 21h93v1036h-93q-20 0 -20 20v156q0 20 20 21h435q217 0 319 -62q180 -109 180 -340q0 -266 -291 -362q-33 -12 -65 -21q121 -47 176 -182l109 -266h106q20 0 21 -21v-156q0 -20 -21 -20h-280l-179 444q-8 18 -10 23q-76 152 -162 156v-426h78 q20 0 21 -21v-156q0 -20 -21 -20h-416q-20 0 -20 20zM440 836h97q129 0 186 34q70 43 70 156t-70 154q-51 32 -178 32h-8h-97v-376z" />
<glyph unicode="S" horiz-adv-x="1032" d="M102 98v285q0 20 21 20h156q20 0 20 -20v-147q86 -35 180 -35h6q83 0 143 51q62 53 62 139q0 84 -65 141q-49 43 -201 111q-137 63 -205 131q-104 106 -108 275v18q0 180 112 283q111 98 292 98h7q197 0 359 -102v-265q0 -20 -21 -20h-155q-20 0 -21 20v123 q-90 27 -170 27q-168 -2 -168 -161v-15q6 -106 125 -174q106 -47 213 -97q238 -127 246 -383v-13q0 -226 -201 -347q-95 -57 -233 -57h-9q-193 2 -385 114z" />
<glyph unicode="T" horiz-adv-x="1021" d="M61 1038v392h900v-392q0 -20 -21 -20h-156q-20 0 -20 20v195h-129v-1036h123q23 0 22 -21v-156q0 -20 -22 -20h-494q-20 0 -20 20v156q0 20 20 21h125v1036h-131v-195q0 -20 -20 -20h-156q-20 0 -21 20z" />
<glyph unicode="U" horiz-adv-x="1185" d="M61 1253v156q0 20 21 21h416q20 0 20 -21v-156q0 -20 -20 -20h-80v-610q0 -426 174 -426t174 426v610h-80q-20 0 -20 20v156q0 20 20 21h418q20 0 20 -21v-156q0 -20 -20 -20h-92v-610q0 -281 -62 -418q-96 -221 -358 -221q-260 0 -359 221q-59 137 -59 418v610h-92 q-20 0 -21 20z" />
<glyph unicode="V" horiz-adv-x="1130" d="M31 1253v156q0 20 20 21h309l146 -754l59 -377l60 377l145 754h309q20 0 21 -21v-156q0 -20 -21 -20h-94l-303 -1233h-233l-304 1233h-94q-20 0 -20 20z" />
<glyph unicode="W" horiz-adv-x="1470" d="M31 1253v156q0 20 20 21h314l106 -762l35 -369l35 369l88 565h213l88 -565l35 -369l34 369l107 762h313q20 0 21 -21v-156q0 -20 -21 -20h-96l-240 -1233h-233l-98 735l-17 211l-16 -211l-98 -735h-236l-240 1233h-94q-20 0 -20 20z" />
<glyph unicode="X" horiz-adv-x="1048" d="M41 20v156q0 20 20 21h99l235 538l-213 498h-96q-20 0 -20 20v156q0 20 20 21h272l142 -404l24 -111l27 111l139 404h273q20 0 20 -21v-156q0 -20 -20 -20h-97l-213 -498l238 -538h96q20 0 21 -21v-156q0 -20 -21 -20h-268l-172 463l-23 94l-20 -94l-172 -463h-271 q-20 0 -20 20z" />
<glyph unicode="Y" horiz-adv-x="1069" d="M31 1253v156q0 20 20 21h273l188 -617l23 -176l20 176l188 617h275q20 0 20 -21v-156q0 -20 -20 -20h-98l-263 -741v-295h125q20 0 21 -21v-156q0 -20 -21 -20h-495q-20 0 -21 20v156q0 20 21 21h125v295l-262 741h-99q-20 0 -20 20z" />
<glyph unicode="Z" horiz-adv-x="999" d="M41 0v125l573 1079h-288v-112q0 -20 -21 -21h-155q-20 0 -21 21v338h809v-121l-567 -1084h336v113q0 20 20 20h156q20 0 20 -20v-338h-862z" />
<glyph unicode="[" horiz-adv-x="602" d="M143 -293v1737h336q20 0 21 -21v-125q0 -20 -21 -20h-117v-1403h117q20 0 21 -22v-125q0 -20 -21 -21h-336z" />
<glyph unicode="\" horiz-adv-x="794" d="M41 1585h229l484 -1741h-228z" />
<glyph unicode="]" horiz-adv-x="602" d="M102 -147q0 23 21 22h117v1403h-117q-20 0 -21 20v125q0 20 21 21h336v-1737h-336q-20 0 -21 21v125z" />
<glyph unicode="^" horiz-adv-x="858" d="M82 893l258 537h180l256 -537h-227l-121 358l-119 -358h-227z" />
<glyph unicode="_" horiz-adv-x="845" d="M41 -184h764v-166h-764v166z" />
<glyph unicode="`" horiz-adv-x="579" d="M123 1427q-8 20 14 21h170q20 0 29 -21l121 -297q8 -20 -15 -20h-110q-23 0 -29 20z" />
<glyph unicode="a" horiz-adv-x="931" d="M82 305q0 121 86 205t223 88h84q55 2 68 49v82q0 49 -35 84t-84 37q-51 0 -86 -34t-55 -66q-10 -16 -29 -2l-98 81q-12 10 -2 27q109 172 307 172q131 -2 221 -93t90 -222v-533h62q37 0 36 -37v-106q0 -37 -36 -37h-199l-51 82q-66 -98 -183 -98q-135 0 -227 93t-92 228z M313 305q0 -145 117 -145h2q61 0 111 67v240q-43 -23 -136.5 -28t-93.5 -134z" />
<glyph unicode="b" horiz-adv-x="968" d="M61 37v106q0 37 37 37h62v1071h-62q-37 0 -37 35v109q0 37 37 37l293 -2v-480q70 80 152 80q199 0 291 -203q53 -114 53 -323q0 -211 -53 -326q-88 -193 -310 -194h-4q-106 0 -174 98l-49 -82h-199q-37 0 -37 37zM391 252q14 -31 54 -53.5t79 -22.5q133 0 133 310v18 q-2 162 -36.5 242.5t-96.5 89.5h-11q-62 0 -120 -60z" />
<glyph unicode="c" horiz-adv-x="874" d="M82 506q0 213 59 330q101 196 336 196h2q178 0 303 -135v-186q0 -35 -37 -35h-108q-35 0 -35 35v84q-53 41 -123 41q-164 0 -164 -332q0 -137 21 -205q35 -125 143 -125q86 0 172 88q25 25 51 4l86 -76q16 -13 16 -27q0 -12 -11 -24q-101 -155 -311 -155h-3 q-397 0 -397 522z" />
<glyph unicode="d" horiz-adv-x="968" d="M82 504q0 209 53 323q92 203 291 203q82 0 152 -80v301h-64q-35 0 -35 35v109q0 37 35 37l293 -2v-1250h63q37 0 37 -37v-106q0 -37 -37 -37h-200l-49 82q-67 -98 -175 -98h-4q-219 2 -307 194q-53 115 -53 326zM311 504v-19q0 -309 131 -309q39 0 80.5 22.5t55.5 53.5 l-3 524q-60 60 -122 60h-11q-59 -8 -94 -89t-37 -243z" />
<glyph unicode="e" horiz-adv-x="913" d="M82 506q0 213 59 330q101 196 332 196h2q215 0 309 -196q47 -103 47 -330v-37q0 -37 -36 -37h-478q8 -258 162 -258q86 0 172 88q25 25 51 4l86 -76q29 -25 5 -51q-101 -155 -311 -155h-3q-397 0 -397 522zM319 612h289q-6 223 -133 224q-139 0 -156 -224z" />
<glyph unicode="f" horiz-adv-x="669" d="M61 37v106q0 37 37 37h62v654h-62q-37 0 -37 36v109q0 35 37 35h62q4 184 78 291q88 125 260 125q122 0 233 -82q15 -11 15 -23q0 -14 -19 -29l-84 -73q-6 -4 -16 -4q-20 0 -56 14q-47 20 -73 20q-102 0 -103 -239h180q35 0 35 -35v-109q0 -37 -35 -36h-180v-654h111 q35 0 35 -37v-106q0 -37 -35 -37h-408q-37 0 -37 37z" />
<glyph unicode="g" horiz-adv-x="948" d="M82 510q0 211 53 326q88 193 307 194h5q48 0 112 -34q68 -35 100 -78q8 29 9 75q0 20 22 21h154q22 -1 22 -21q0 -100 -57 -174v-837q0 -197 -92 -310q-104 -129 -314 -129q-184 0 -272 99q-23 27 4 51l88 74q20 18 49 -5q49 -26 123 -26h6q178 0 179 246v81 q-75 -79 -152 -79h-2q-199 0 -291 202q-53 117 -53 324zM311 510q2 -160 37 -242t94 -88q7 -1 14 -1q61 0 124 63v522q-16 31 -57.5 52.5t-80.5 21.5q-131 0 -131 -309v-19z" />
<glyph unicode="h" d="M61 37v106q0 37 37 37h62v1071h-62q-37 0 -37 35v109q0 37 37 37l293 -2v-498q127 100 196 100h3q156 0 246 -176q45 -90 45 -291v-385h63q35 0 35 -37v-106q0 -37 -35 -37h-293v565q0 168 -22 219q-27 59 -58 60q-35 0 -180 -123v-721h-293q-37 0 -37 37z" />
<glyph unicode="i" horiz-adv-x="649" d="M61 37v106q0 37 37 37h109v654h-109q-37 0 -37 36v109q0 35 37 35h344v-834h111q35 0 35 -37v-106q0 -37 -35 -37h-455q-37 0 -37 37zM156 1303q0 66 47 113.5t114 47.5q66 0 114 -47.5t48 -113.5q0 -68 -48 -115t-114 -47q-68 0 -114.5 47t-46.5 115z" />
<glyph unicode="j" horiz-adv-x="610" d="M-102 -358q-12 12 -12 23q0 14 16 28l86 74q16 12 41 2q20 -10 41 -21q31 -12 65 -12q102 0 103 248v850h-111q-35 0 -35 36v109q0 35 35 35h346v-1030q0 -174 -51 -273q-88 -168 -287 -168q-143 0 -237 99zM184 1303q0 66 48.5 113.5t113.5 47.5q68 0 115 -47.5 t47 -113.5q0 -68 -47 -115t-115 -47q-66 0 -114 47t-48 115z" />
<glyph unicode="k" horiz-adv-x="995" d="M61 37v106q0 37 37 37h62v1071h-62q-37 0 -37 35v109q0 35 37 35h293v-814l213 398h260q37 0 37 -35v-109q0 -37 -37 -36h-108l-172 -287l264 -367h80q37 0 37 -37v-106q0 -37 -37 -37h-226l-311 475v-475h-293q-37 0 -37 37z" />
<glyph unicode="l" horiz-adv-x="552" d="M41 1286v109q0 35 37 35h293v-1166q0 -88 22 -88l64 4q35 2 35 -37v-106q0 -35 -35 -37l-47 -4h-11h-34q-225 0 -226 268v987h-61q-37 0 -37 35z" />
<glyph unicode="m" horiz-adv-x="1449" d="M61 37v106q0 37 37 37h62v656h-62q-37 0 -37 34v109q0 37 37 37h215l41 -88v-21q159 125 222 125h2q129 0 202 -139q176 139 240 139h2q143 0 221 -176q47 -104 47 -291v-385h62q37 0 37 -37v-106q0 -37 -37 -37h-293v565q0 184 -11.5 233.5t-39.5 49.5q-10 0 -21 -6 q-33 -20 -151 -119q10 -63 10 -158v-385h39q35 0 35 -37v-106q0 -37 -35 -37h-271v565q0 184 -11 233.5t-42 49.5q-8 0 -20 -6q-31 -20 -150 -121v-721h-293q-37 0 -37 37z" />
<glyph unicode="n" d="M61 37v106q0 37 37 37h62v656h-62q-37 0 -37 34v109q0 37 37 37h215l41 -88v-21q161 125 234 125h2q156 0 246 -176q45 -90 45 -291v-385h63q35 0 35 -37v-106q0 -37 -35 -37h-293v565q0 168 -22 219q-27 59 -58 60q-35 0 -180 -123v-721h-293q-37 0 -37 37z" />
<glyph unicode="o" horiz-adv-x="927" d="M82 510q0 205 55 319q96 201 328 201q229 0 323 -201q58 -118 58 -319q0 -207 -58 -326q-94 -199 -323 -200q-109 0 -196 53t-132 147q-55 113 -55 326zM313 510q0 -338 152 -338q149 2 149 338q0 166 -34 242q-39 86 -115 88q-152 0 -152 -330z" />
<glyph unicode="p" horiz-adv-x="968" d="M61 -272q0 37 37 36h62v1070h-62q-37 0 -37 36v109q0 35 37 35h199l49 -80q69 96 174 96h4q221 -2 310 -194q53 -115 53 -326q0 -207 -53 -324q-92 -202 -289 -202h-2q-82 0 -152 79v-479h-293q-37 0 -37 37v107zM391 762l2 -522q56 -61 117 -61q7 0 14 1q61 6 96 88 t37 242v18q0 310 -133 310q-39 0 -78.5 -22.5t-54.5 -53.5z" />
<glyph unicode="q" horiz-adv-x="968" d="M82 510q0 211 53 326q88 193 307 194h4q108 0 175 -96l49 80h200q37 0 37 -35v-109q0 -37 -37 -36h-61l-2 -1250h-293q-35 0 -35 37v107q0 37 35 36h64v299q-69 -79 -150 -79h-2q-199 0 -291 202q-53 117 -53 324zM311 510q2 -160 37 -242t94 -88q7 -1 14 -1q61 0 119 61 l3 522q-14 31 -55.5 53.5t-80.5 22.5q-131 0 -131 -309v-19z" />
<glyph unicode="r" horiz-adv-x="802" d="M61 37v106q0 37 37 37h62v654h-62q-37 0 -37 36v109q0 35 37 35h230l67 -105v-73q80 135 191 194q94 -18 172 -67q21 -8 21 -26q0 -10 -7 -24l-61 -114q-12 -20 -52 -17l-77 41q-113 -59 -187 -207v-436h111q35 0 35 -37v-106q0 -37 -35 -37h-408q-37 0 -37 37z" />
<glyph unicode="s" horiz-adv-x="837" d="M82 74v184v4v33q0 37 37 37h106q37 0 37 -37v-100q72 -18 125 -19q63 0 96 23q49 35 49 92q0 45 -40 71q-2 0 -97 46q-150 74 -207 122q-96 86 -96 207q0 147 92 226q82 68 217 69h8q158 0 298 -80v-213q0 -35 -37 -34h-109q-35 0 -35 34v72q-70 29 -121 29h-12 q-86 -8 -86 -88v-11q4 -47 68 -84q55 -25 108 -49q133 -68 183 -116q79 -78 79 -199v-5q0 -134 -101 -222q-103 -90 -243 -89q-145 0 -319 97z" />
<glyph unicode="t" horiz-adv-x="645" d="M41 870v109q0 35 37 35h61v225q0 45 45 45h142q45 0 45 -45v-225h178q35 0 35 -35v-109q0 -37 -35 -36h-178v-570q0 -88 22 -88l144 4q37 0 36 -37v-106q0 -35 -36 -37l-172 -4q-225 0 -226 268v570h-61q-37 0 -37 36z" />
<glyph unicode="u" d="M61 870v109q0 35 37 35h293v-563q0 -170 21 -222q27 -59 59 -59q33 0 180 123v541h-43q-37 0 -37 36v109q0 35 37 35h273v-834h63q35 0 35 -37v-108q0 -35 -35 -35h-215l-43 86v41q-156 -145 -235 -145q-156 0 -244 176q-47 92 -47 293v383h-62q-37 0 -37 36z" />
<glyph unicode="v" horiz-adv-x="970" d="M31 870v109q0 35 37 35h256l125 -527l36 -254l37 254l131 527h250q37 0 37 -35v-109q0 -37 -37 -36h-65l-248 -834h-209l-248 834h-65q-37 0 -37 36z" />
<glyph unicode="w" horiz-adv-x="1396" d="M31 870v109q0 35 37 35h256l118 -527l33 -274l37 274l106 441h158l109 -441l37 -274l32 274l119 527h256q37 0 37 -35v-109q0 -37 -37 -36h-65l-238 -834h-197l-112 553l-19 154l-20 -154l-111 -553h-196l-240 834h-63q-37 0 -37 36z" />
<glyph unicode="x" horiz-adv-x="899" d="M31 37v106q0 37 37 37h75l187 355l-158 299h-70q-37 0 -36 36v109q0 35 36 35h236l113 -320l110 320h236q37 0 37 -35v-109q0 -37 -37 -36h-68l-160 -299l187 -355h75q37 0 37 -37v-106q0 -37 -37 -37h-231l-149 375l-152 -375h-231q-37 0 -37 37z" />
<glyph unicode="y" horiz-adv-x="1003" d="M31 870v109q0 35 37 35h256l131 -527l47 -272l47 272l131 527h256q37 0 37 -35v-109q0 -37 -37 -36h-66l-331 -1100q-33 -113 -111 -156q-63 -35 -192 -35q-37 0 -37 37v109q0 35 37 35q74 0 96 12q33 16 49 78l45 186h-41l-254 834h-63q-37 0 -37 36z" />
<glyph unicode="z" horiz-adv-x="839" d="M61 0v131l412 703h-203v-84q0 -37 -37 -37h-106q-37 0 -37 37v264h674v-131l-418 -703h252v109q0 37 35 37h108q37 0 37 -37v-289h-717z" />
<glyph unicode="{" horiz-adv-x="544" d="M82 547v55q0 20 22 21q31 0 48 67q10 39 22 293q12 221 59 324q66 141 228 141q23 0 22 -21v-135q0 -18 -18 -18q-96 0 -109 -338q-4 -109 -8 -156q-6 -76 -18 -123q-14 -53 -45 -84q31 -29 45 -79q18 -70 26 -281q12 -338 109 -338q18 0 18 -18v-136q0 -20 -22 -20 q-162 0 -228 141q-47 102 -59 324q-2 113 -22 293q-16 68 -48 67q-23 0 -22 21z" />
<glyph unicode="|" horiz-adv-x="559" d="M164 -457v2042h231v-2042h-231z" />
<glyph unicode="}" horiz-adv-x="544" d="M61 -143q0 18 19 18q96 0 108 338q4 111 7 156q6 78 20 127t45 77q-33 31 -45 84q-20 70 -27 279q-12 338 -108 338q-18 0 -19 18v135q0 20 23 21q160 0 227 -141q47 -102 60 -324q2 -113 22 -293q16 -68 47 -67q23 0 23 -21v-55q0 -20 -23 -21q-31 0 -47 -67 q-10 -39 -22 -293q-12 -221 -60 -324q-68 -141 -227 -141q-23 0 -23 20v136z" />
<glyph unicode="~" horiz-adv-x="882" d="M82 1432l8 12q78 92 170 92q80 0 183.5 -49t152.5 -35q20 6 51 43l10 12q14 18 31 2l111 -84q14 -16 2 -30l-8 -11q-78 -98 -183 -94q-70 2 -172 51.5t-151 34.5q-25 -8 -51 -43l-11 -14q-16 -16 -30 -2l-111 84q-16 16 -2 31z" />
<glyph unicode="&#xa1;" horiz-adv-x="675" d="M164 858q0 72 51 123t121 51q74 0 125 -51t51 -123t-51 -123t-125 -51q-72 0 -122 51t-50 123zM211 215l33 317q0 20 20 21h148q20 0 20 -21l33 -317v-641q0 -20 -21 -20h-213q-20 0 -20 20v641z" />
<glyph unicode="&#xa2;" horiz-adv-x="886" d="M102 485q0 213 60 328q88 176 295 186l28 140h154l-33 -158q104 -39 168 -131q10 -15 10 -29q0 -27 -24 -41l-60 -35q-16 -12 -38 -8q-23 4 -35 21q-23 35 -58 57l-143 -676q25 -8 53 -8q82 0 150 86q27 33 67 14l64 -36q18 -12 24 -33q4 -20 -10 -37l2 2 q-100 -156 -297 -156q-47 0 -88 11l-29 -144h-147l41 205q-59 45 -94 117q-59 117 -60 325zM279 485q0 -143 26 -219l117 565q-68 -23 -103 -92q-41 -78 -40 -254z" />
<glyph unicode="&#xa3;" horiz-adv-x="876" d="M82 668l12 53q8 39 49 43q-18 115 -18 192q0 207 102 322q92 100 230 100q199 0 327 -182v2q15 -18 11 -41q-4 -20 -25 -33l2 2l-61 -43q-16 -12 -39 -8q-25 2 -37 19q-45 63 -74 86q-41 31 -104 30q-45 0 -92 -51q-57 -61 -58 -203q0 -72 21 -192h149q23 0 38 -16.5 t11 -38.5l-12 -54q-10 -43 -57 -43h-105q18 -115 19 -192q0 -106 -54 -244h408q53 0 53 -51v-74q0 -51 -53 -51h-592v147v5q55 156 55 276q0 70 -20 184h-39q-23 0 -37 16.5t-10 39.5z" />
<glyph unicode="&#xa4;" horiz-adv-x="1083" d="M102 532l13 54q8 45 53 45h14v44v44h-32q-57 0 -48 55l13 53q10 43 53 43h25q16 150 75 265q125 236 379 235q199 0 328 -164l6 -8v-125q0 -47 -49 -47h-74q-51 0 -51 47v62q-68 76 -160 75q-137 0 -219 -151q-41 -78 -55 -189h319q25 0 39 -16t10 -39l-12 -51 q-8 -45 -55 -45h-312v-88h330q57 0 49 -56v-2l-12 -53q-10 -43 -55 -43h-301q20 -135 80 -223q76 -113 194 -113q92 0 160 78v60q0 47 51 47h74q49 0 49 -47v-125l-6 -9q-129 -162 -328 -161q-168 0 -282 106q-104 96 -150 262q-14 57 -22 125h-43q-23 0 -37.5 16.5 t-10.5 38.5z" />
<glyph unicode="&#xa5;" horiz-adv-x="1005" d="M31 1237v70q0 49 49 49h270q49 0 49 -49v-70q0 -49 -49 -49h-22l176 -494l174 494h-23q-49 0 -49 49v70q0 49 49 49h271q49 0 49 -49v-70q0 -49 -49 -49h-66l-158 -424h64q45 0 45 -45v-10l-12 -54q-8 -43 -54 -43h-98l-33 -88h152q45 0 45 -45v-12l-12 -53 q-8 -43 -54 -43h-155v-203h69q49 0 50 -49v-70q0 -49 -50 -49h-313q-51 0 -51 49v70q0 49 51 49h70v203h-176q-45 0 -45 47v10l12 53q8 43 53 43h131l-33 88h-118q-45 0 -45 45v11l12 53q8 43 53 43h43l-158 424h-65q-49 0 -49 49z" />
<glyph unicode="&#xa7;" horiz-adv-x="876" d="M102 664q0 150 80 245q-49 72 -49 174q0 150 86 247t223 97q190 0 316 -258l-158 -71q-78 160 -158 159q-133 0 -133 -174q0 -63 30 -92.5t124 -54.5q311 -84 311 -356q0 -150 -78 -246q47 -70 47 -174q0 -150 -86 -247t-221 -97q-190 0 -317 258l160 71 q78 -160 157 -159q59 0 95 47t36 127q0 63 -29.5 93t-123.5 56q-311 84 -312 355zM279 664q0 -141 184 -191q47 -12 96 -33q39 50 39 140q0 86 -53 131q-37 33 -131 61q-61 18 -95 33q-41 -51 -40 -141z" />
<glyph unicode="&#xa8;" horiz-adv-x="845" d="M123 1260q0 49 35 83.5t86 34.5q49 0 83.5 -34.5t34.5 -83.5q0 -51 -34.5 -86t-83.5 -35q-51 0 -86 34.5t-35 86.5zM481 1260q0 49 36 83.5t85 34.5t85 -34.5t36 -83.5q0 -51 -36 -86t-85 -35t-85 34.5t-36 86.5z" />
<glyph unicode="&#xa9;" horiz-adv-x="1462" d="M82 713q0 268 190.5 458.5t458.5 190.5t458.5 -190.5t190.5 -458.5t-190.5 -459t-458.5 -191t-458.5 190.5t-190.5 459.5zM221 713q0 -211 149.5 -360.5t360.5 -149.5t360.5 149.5t149.5 360.5t-149.5 360.5t-360.5 149.5t-360.5 -149.5t-149.5 -360.5zM494 715 q0 166 47 260q68 133 209 133q109 0 186 -100v-95q0 -35 -37 -34h-37q-37 0 -37 34v54q-33 37 -75 37q-70 0 -109 -80q-35 -70 -35 -209t35 -209q39 -80 109 -80q43 0 75 37v53q0 35 37 35h37q35 0 35 -35v-94q-76 -100 -184 -100q-141 0 -209 135q-47 92 -47 258z" />
<glyph unicode="&#xaa;" horiz-adv-x="739" d="M82 848q0 109 67.5 185.5t169.5 82.5q86 2 97 0q16 0 28 6v72q0 39 -21.5 64.5t-51.5 25.5q-66 0 -101 -67l2 4q-8 -23 -34 -29q-23 -6 -48 10l-2 2l-45 39q-16 18 -16 39q0 14 10 33q82 135 234 135q100 0 168.5 -76t68.5 -180v-438h17q53 0 53 -56v-45q0 -55 -53 -55 h-142l-10 29q-66 -43 -147 -43q-102 0 -173 75.5t-71 186.5zM248 848q0 -43 23.5 -76t54.5 -33q71 1 118 52v170q-6 -2 -18 -3q-41 -4 -94 -6q-84 -8 -84 -104zM258 410v71q0 20 18 21h205q18 0 19 -21v-71q0 -20 -19 -21h-205q-18 0 -18 21z" />
<glyph unicode="&#xab;" horiz-adv-x="761" d="M82 565v238l274 348v-250l-211 -217l211 -219v-250zM375 565v238l274 348v-250l-211 -217l211 -219v-250z" />
<glyph unicode="&#xac;" horiz-adv-x="849" d="M82 604v148h645v-390l-143 3v239h-502z" />
<glyph unicode="&#xad;" horiz-adv-x="696" d="M92 641v156q0 20 21 20h471q20 0 20 -20v-156q0 -20 -20 -20h-471q-20 0 -21 20z" />
<glyph unicode="&#xae;" horiz-adv-x="1462" d="M82 713q0 268 190.5 458.5t458.5 190.5t458.5 -190.5t190.5 -458.5t-190.5 -459t-458.5 -191t-458.5 190.5t-190.5 459.5zM221 713q0 -211 149.5 -360.5t360.5 -149.5t360.5 149.5t149.5 360.5t-149.5 360.5t-360.5 149.5t-360.5 -149.5t-149.5 -360.5zM485 367v36 q0 35 35 35h12v553h-12q-35 0 -35 35v39q0 35 35 35h193q106 0 155 -33q88 -57 88 -182q0 -166 -143 -205q8 -14 16 -31l95 -211h30q35 0 35 -35v-36q0 -37 -35 -37h-104l-119 264q-29 68 -53 76h-35v-232h27q37 0 37 -35v-36q0 -37 -37 -37h-150q-35 0 -35 37zM643 774h68 q66 0 96 21q39 24 39 90t-39 90q-29 18 -96 18h-68v-219z" />
<glyph unicode="&#xaf;" horiz-adv-x="942" d="M246 1217v149h450v-149h-450z" />
<glyph unicode="&#xb0;" horiz-adv-x="692" d="M102 1221q0 100 72 171.5t172 71.5t172 -71.5t72 -171.5t-72 -172t-172 -72t-172 71.5t-72 172.5zM233 1221q0 -47 33 -80t80 -33t80 33t33 80t-33 79.5t-80 32.5t-80 -32.5t-33 -79.5z" />
<glyph unicode="&#xb1;" horiz-adv-x="915" d="M92 154v112q0 20 21 21h690q20 0 20 -21v-112q0 -20 -20 -21h-690q-20 0 -21 21zM92 641v156q0 20 21 20h247v248q0 20 21 20h156q20 0 20 -20v-248h246q20 0 20 -20v-156q0 -20 -20 -20h-246v-246q0 -20 -20 -21h-156q-20 0 -21 21v246h-247q-20 0 -21 20z" />
<glyph unicode="&#xb4;" horiz-adv-x="579" d="M123 1130l121 297q8 20 26 21h172q21 -1 15 -21l-181 -297q-8 -20 -28 -20h-111q-23 0 -14 20z" />
<glyph unicode="&#xb6;" horiz-adv-x="962" d="M82 1034q0 164 96 280t234 116h407v-1739h-137v1607h-129v-1607h-137v946h-4q-137 0 -233.5 116.5t-96.5 280.5z" />
<glyph unicode="&#xb7;" horiz-adv-x="552" d="M102 664q0 74 51.5 125t125.5 51q72 0 122 -51t50 -125q0 -70 -50.5 -121t-121.5 -51q-74 0 -125.5 50t-51.5 122z" />
<glyph unicode="&#xb8;" horiz-adv-x="942" d="M317 -422l168 285l-61 160l113 51l88 -221l-133 -275h-175z" />
<glyph unicode="&#xba;" horiz-adv-x="745" d="M82 1022q0 168 43 264q72 164 248 164q174 0 250 -164q41 -94 41 -264q0 -178 -41 -272q-76 -164 -250 -164t-248 164q-43 94 -43 272zM248 1018q0 -135 28 -199q33 -76 97 -76q66 0 98 76q27 64 27 203q0 133 -27 195q-35 76 -98 75q-63 0 -99 -75q-27 -61 -26 -195v-4z M252 410v71q0 20 20 21h205q18 0 19 -21v-71q0 -20 -19 -21h-205q-20 0 -20 21z" />
<glyph unicode="&#xbb;" horiz-adv-x="761" d="M113 215v250l211 219l-211 217v250l274 -348v-238zM406 215v250l210 219l-210 217v250l274 -348v-238z" />
<glyph unicode="&#xbf;" horiz-adv-x="964" d="M123 -92q0 80 47 158q47 63 94 129q123 170 119 337q0 20 20 21h148q20 0 20 -21q8 -51 9 -96q0 -184 -131 -360q-78 -106 -89 -168q-2 -14 -2 -31q0 -137 115 -137q102 0 152 135q6 18 24 12l178 -49q21 -6 15 -26q-104 -268 -369 -269q-164 0 -260 109q-90 102 -90 256 zM303 858q0 72 51.5 123t122.5 51q72 0 123 -51t51 -123t-50 -123t-124 -51q-72 0 -123 51t-51 123z" />
<glyph unicode="&#xc0;" horiz-adv-x="1202" d="M31 20v156q0 20 20 21h94l349 1233h215l348 -1233h94q20 0 20 -21v-156q0 -20 -20 -20h-424q-20 0 -20 20v156q0 20 20 21h80l-45 202h-322l-45 -202h80q20 0 21 -21v-156q0 -20 -21 -20h-424q-20 0 -20 20zM332 1845q-8 20 12 21h172q20 0 29 -21l119 -297 q8 -20 -13 -20h-112q-20 0 -27 20zM485 596h232l-82 365l-33 206l-33 -206z" />
<glyph unicode="&#xc1;" horiz-adv-x="1202" d="M31 20v156q0 20 20 21h94l349 1233h215l348 -1233h94q20 0 20 -21v-156q0 -20 -20 -20h-424q-20 0 -20 20v156q0 20 20 21h80l-45 202h-322l-45 -202h80q20 0 21 -21v-156q0 -20 -21 -20h-424q-20 0 -20 20zM485 596h232l-82 365l-33 206l-33 -206zM496 1548l120 297 q8 20 27 21h172q20 -1 14 -21l-180 -297q-8 -20 -28 -20h-113q-20 0 -12 20z" />
<glyph unicode="&#xc2;" horiz-adv-x="1202" d="M31 20v156q0 20 20 21h94l349 1233h215l348 -1233h94q20 0 20 -21v-156q0 -20 -20 -20h-424q-20 0 -20 20v156q0 20 20 21h80l-45 202h-322l-45 -202h80q20 0 21 -21v-156q0 -20 -21 -20h-424q-20 0 -20 20zM326 1522l184 376h174l184 -376h-145l-125 286l-127 -286h-145 zM485 596h232l-82 365l-33 206l-33 -206z" />
<glyph unicode="&#xc3;" horiz-adv-x="1202" d="M31 20v156q0 20 20 21h94l349 1233h215l348 -1233h94q20 0 20 -21v-156q0 -20 -20 -20h-424q-20 0 -20 20v156q0 20 20 21h80l-45 202h-322l-45 -202h80q20 0 21 -21v-156q0 -20 -21 -20h-424q-20 0 -20 20zM297 1638l8 11q66 94 152 94q68 0 158 -50.5t133 -35.5 q18 6 45 43l10 14q12 16 26 2l56 -53q14 -13 2 -31l-8 -10q-66 -94 -152 -94q-66 0 -157 49t-134 37q-18 -6 -45 -45l-8 -13q-12 -18 -29 -4l-53 54q-14 14 -4 32zM485 596h232l-82 365l-33 206l-33 -206z" />
<glyph unicode="&#xc4;" horiz-adv-x="1202" d="M31 20v156q0 20 20 21h94l349 1233h215l348 -1233h94q20 0 20 -21v-156q0 -20 -20 -20h-424q-20 0 -20 20v156q0 20 20 21h80l-45 202h-322l-45 -202h80q20 0 21 -21v-156q0 -20 -21 -20h-424q-20 0 -20 20zM309 1630q0 49 35 85t84 36q51 0 86 -36t35 -85t-35 -85 t-86 -36q-49 0 -84 36t-35 85zM485 596h232l-82 365l-33 206l-33 -206zM668 1630q0 49 34.5 85t85.5 36q49 0 84 -36t35 -85t-34.5 -85t-84.5 -36q-51 0 -85.5 36t-34.5 85z" />
<glyph unicode="&#xc5;" horiz-adv-x="1202" d="M31 20v156q0 20 20 21h94l349 1233h215l348 -1233h94q20 0 20 -21v-156q0 -20 -20 -20h-424q-20 0 -20 20v156q0 20 20 21h80l-45 202h-322l-45 -202h80q20 0 21 -21v-156q0 -20 -21 -20h-424q-20 0 -20 20zM397 1712q0 84 60.5 144.5t146.5 60.5q84 0 144.5 -60.5 t60.5 -144.5q0 -86 -60.5 -146.5t-144.5 -60.5q-86 0 -146.5 60.5t-60.5 146.5zM485 596h232l-82 365l-33 206l-33 -206zM506 1712q0 -41 28.5 -69.5t69.5 -28.5q39 0 67.5 28.5t28.5 69.5q0 39 -28.5 67.5t-67.5 28.5q-41 0 -69.5 -28.5t-28.5 -67.5z" />
<glyph unicode="&#xc6;" horiz-adv-x="1613" d="M31 20v156q0 20 20 21h94l586 1233h715v-338q0 -20 -21 -21h-155q-20 0 -21 21v114h-286l28 -362h375q20 0 20 -21v-155q0 -20 -20 -21h-358l32 -424h275v115q0 20 20 20h154q23 0 22 -20v-338h-784q-20 0 -20 20v156q0 20 20 21h80l-4 202h-12h-310l-86 -202h80 q20 0 21 -21v-156q0 -20 -21 -20h-424q-20 0 -20 20zM567 596h224h6l-9 365l11 206l-76 -206z" />
<glyph unicode="&#xc7;" horiz-adv-x="1081" d="M102 715q0 309 93 479q135 252 415 252q215 0 369 -191v-233q0 -20 -21 -21h-155q-20 0 -21 21v143q-70 68 -172 68q-125 0 -198 -139q-66 -121 -66 -379t66 -379q74 -139 198 -139q102 0 172 67v144q0 20 21 20h155q20 0 21 -20v-234q-141 -174 -322 -188l54 -133 l-131 -275h-174l167 285l-51 129q-217 37 -327 244q-92 170 -93 479z" />
<glyph unicode="&#xc8;" horiz-adv-x="1050" d="M82 20v156q0 20 20 21h93v1036h-93q-20 0 -20 20v156q0 20 20 21h846v-338q0 -20 -20 -21h-156q-20 0 -20 21v114h-312v-362h389q20 0 21 -21v-155q0 -20 -21 -21h-389v-424h312v115q0 20 20 20h156q20 0 20 -20v-338h-846q-20 0 -20 20zM369 1845q-6 20 14 21h172 q18 0 27 -21l120 -297q8 -20 -14 -20h-110q-20 0 -29 20z" />
<glyph unicode="&#xc9;" horiz-adv-x="1030" d="M82 20v156q0 20 20 21h93v1036h-93q-20 0 -20 20v156q0 20 20 21h846v-338q0 -20 -20 -21h-156q-20 0 -20 21v114h-312v-362h389q20 0 21 -21v-155q0 -20 -21 -21h-389v-424h312v115q0 20 20 20h156q20 0 20 -20v-338h-846q-20 0 -20 20zM414 1548l121 297q8 20 28 21 h170q23 -1 15 -21l-181 -297q-6 -20 -28 -20h-111q-23 0 -14 20z" />
<glyph unicode="&#xca;" horiz-adv-x="1030" d="M61 20v156q0 20 21 21h92v1036h-92q-20 0 -21 20v156q0 20 21 21h846v-338q0 -20 -21 -21h-155q-20 0 -21 21v114h-311v-362h389q20 0 20 -21v-155q0 -20 -20 -21h-389v-424h311v115q0 20 21 20h155q20 0 21 -20v-338h-846q-20 0 -21 20zM246 1522l184 376h172l184 -376 h-145l-125 286l-125 -286h-145z" />
<glyph unicode="&#xcb;" horiz-adv-x="1050" d="M82 20v156q0 20 20 21h93v1036h-93q-20 0 -20 20v156q0 20 20 21h846v-338q0 -20 -20 -21h-156q-20 0 -20 21v114h-312v-362h389q20 0 21 -21v-155q0 -20 -21 -21h-389v-424h312v115q0 20 20 20h156q20 0 20 -20v-338h-846q-20 0 -20 20zM223 1630q0 49 35 85t84 36 q51 0 86 -36t35 -85t-35 -85t-86 -36q-49 0 -84 36t-35 85zM582 1630q0 49 34.5 85t85.5 36q49 0 84 -36t35 -85t-34.5 -85t-84.5 -36q-51 0 -85.5 36t-34.5 85z" />
<glyph unicode="&#xcc;" horiz-adv-x="700" d="M82 20v156q0 20 20 21h125v1036h-125q-20 0 -20 20v156q0 20 20 21h496q20 0 20 -21v-156q0 -20 -20 -20h-125v-1036h125q20 0 20 -21v-156q0 -20 -20 -20h-496q-20 0 -20 20zM164 1845q-6 20 14 21h172q18 0 27 -21l121 -297q8 -20 -15 -20h-110q-20 0 -29 20z" />
<glyph unicode="&#xcd;" horiz-adv-x="700" d="M82 20v156q0 20 20 21h125v1036h-125q-20 0 -20 20v156q0 20 20 21h496q20 0 20 -21v-156q0 -20 -20 -20h-125v-1036h125q20 0 20 -21v-156q0 -20 -20 -20h-496q-20 0 -20 20zM236 1548l120 297q8 20 27 21h172q20 -1 14 -21l-180 -297q-8 -20 -29 -20h-110q-23 0 -14 20 z" />
<glyph unicode="&#xce;" horiz-adv-x="706" d="M82 1522l184 376h172l185 -376h-146l-125 286l-125 -286h-145zM90 20v156q0 20 21 21h125v1036h-125q-20 0 -21 20v156q0 20 21 21h493q20 0 21 -21v-156q0 -20 -21 -20h-123v-1036h123q20 0 21 -21v-156q0 -20 -21 -20h-493q-20 0 -21 20z" />
<glyph unicode="&#xcf;" horiz-adv-x="763" d="M82 1630q0 49 35 85t86 36q49 0 84 -36t35 -85t-35 -85t-84 -36q-51 0 -86 36t-35 85zM113 20v156q0 20 20 21h123v1036h-123q-20 0 -20 20v156q0 20 20 21h494q20 0 20 -21v-156q0 -20 -20 -20h-125v-1036h125q20 0 20 -21v-156q0 -20 -20 -20h-494q-20 0 -20 20z M440 1630q0 49 36 85t85 36t85 -36t36 -85t-36 -85t-85 -36t-85 36t-36 85z" />
<glyph unicode="&#xd1;" horiz-adv-x="1253" d="M82 20v156q0 20 20 21h93v1036h-93q-20 0 -20 20v156q0 20 20 21h291l352 -676l80 -187l-8 191v475h-88q-20 0 -20 20v156q0 20 20 21h422q20 0 20 -21v-156q0 -20 -20 -20h-90v-1233h-184l-388 752l-63 161l10 -163v-553h88q20 0 21 -21v-156q0 -20 -21 -20h-422 q-20 0 -20 20zM197 1638l8 11q66 94 151 94q66 0 157 -50.5t134 -35.5q18 6 45 43l10 14q10 16 27 2l53 -53q14 -13 4 -31l-8 -10q-66 -94 -151 -94q-68 0 -158 49t-133 37q-18 -6 -45 -45l-10 -13q-12 -18 -27 -4l-55 54q-14 14 -2 32z" />
<glyph unicode="&#xd2;" horiz-adv-x="1134" d="M82 715q0 309 86 479q131 252 399 252q270 0 398 -252q88 -172 88 -479q0 -303 -88 -477q-127 -254 -398 -254q-270 0 -399 254q-86 174 -86 477zM330 715q0 -250 61 -379q68 -139 176 -139q111 0 178 139q60 125 60 379t-60 381q-66 137 -178 137q-111 0 -176 -137 q-61 -129 -61 -381zM377 1845q-6 20 14 21h170q20 0 29 -21l121 -297q8 -20 -15 -20h-110q-23 0 -29 20z" />
<glyph unicode="&#xd3;" horiz-adv-x="1134" d="M82 715q0 309 86 479q131 252 399 252q270 0 398 -252q88 -172 88 -479q0 -303 -88 -477q-127 -254 -398 -254q-270 0 -399 254q-86 174 -86 477zM330 715q0 -250 61 -379q68 -139 176 -139q111 0 178 139q60 125 60 379t-60 381q-66 137 -178 137q-111 0 -176 -137 q-61 -129 -61 -381zM444 1548l119 297q8 20 29 21h172q20 -1 12 -21l-180 -297q-6 -20 -27 -20h-112q-20 0 -13 20z" />
<glyph unicode="&#xd4;" horiz-adv-x="1134" d="M82 715q0 309 86 479q131 252 399 252q270 0 398 -252q88 -172 88 -479q0 -303 -88 -477q-127 -254 -398 -254q-270 0 -399 254q-86 174 -86 477zM299 1522l184 376h172l185 -376h-146l-125 286l-125 -286h-145zM330 715q0 -250 61 -379q68 -139 176 -139q111 0 178 139 q60 125 60 379t-60 381q-66 137 -178 137q-111 0 -176 -137q-61 -129 -61 -381z" />
<glyph unicode="&#xd5;" horiz-adv-x="1134" d="M82 715q0 309 86 479q131 252 399 252q270 0 398 -252q88 -172 88 -479q0 -303 -88 -477q-127 -254 -398 -254q-270 0 -399 254q-86 174 -86 477zM295 1638l8 11q66 94 150 94q68 0 158.5 -50.5t133.5 -35.5q18 6 46 43l8 14q12 16 26 2l56 -53q14 -13 2 -31l-9 -10 q-66 -94 -149 -94q-68 0 -159 49t-134 37q-18 -6 -45 -45l-8 -13q-12 -18 -27 -4l-55 54q-14 14 -2 32zM330 715q0 -250 61 -379q68 -139 176 -139q111 0 178 139q60 125 60 379t-60 381q-66 137 -178 137q-111 0 -176 -137q-61 -129 -61 -381z" />
<glyph unicode="&#xd6;" horiz-adv-x="1134" d="M82 715q0 309 86 479q131 252 399 252q270 0 398 -252q88 -172 88 -479q0 -303 -88 -477q-127 -254 -398 -254q-270 0 -399 254q-86 174 -86 477zM264 1630q0 49 35 85t86 36q49 0 84 -36t35 -85t-35 -85t-84 -36q-51 0 -86 36t-35 85zM330 715q0 -250 61 -379 q68 -139 176 -139q111 0 178 139q60 125 60 379t-60 381q-66 137 -178 137q-111 0 -176 -137q-61 -129 -61 -381zM623 1630q0 49 35.5 85t84.5 36t85 -36t36 -85t-35.5 -85t-85.5 -36q-49 0 -84.5 36t-35.5 85z" />
<glyph unicode="&#xd8;" horiz-adv-x="1134" d="M82 715q0 309 86 479q131 252 399 252q88 0 164 -29l31 92q6 18 26 19h97q18 0 12 -19l-53 -159q72 -59 121 -156q88 -170 88 -479q0 -303 -88 -477q-127 -254 -398 -254q-90 0 -168 30l-28 -84q-6 -18 -25 -18h-96q-20 0 -14 18l51 154q-72 61 -119 154q-86 174 -86 477 zM330 715q0 -236 51 -355l281 842q-43 31 -95 31q-111 0 -176 -137q-61 -129 -61 -381zM471 229q43 -33 96 -32q111 0 178 139q60 125 60 379q0 238 -51 360z" />
<glyph unicode="&#xd9;" horiz-adv-x="1185" d="M61 1253v156q0 20 21 21h416q20 0 20 -21v-156q0 -20 -20 -20h-80v-610q0 -426 174 -426t174 426v610h-80q-20 0 -20 20v156q0 20 20 21h418q20 0 20 -21v-156q0 -20 -20 -20h-92v-610q0 -281 -62 -418q-96 -221 -358 -221q-260 0 -359 221q-59 137 -59 418v610h-92 q-20 0 -21 20zM428 1845q-6 20 14 21h172q18 0 29 -21l119 -297q8 -20 -12 -20h-113q-20 0 -29 20z" />
<glyph unicode="&#xda;" horiz-adv-x="1185" d="M61 1253v156q0 20 21 21h416q20 0 20 -21v-156q0 -20 -20 -20h-80v-610q0 -426 174 -426t174 426v610h-80q-20 0 -20 20v156q0 20 20 21h418q20 0 20 -21v-156q0 -20 -20 -20h-92v-610q0 -281 -62 -418q-96 -221 -358 -221q-260 0 -359 221q-59 137 -59 418v610h-92 q-20 0 -21 20zM434 1548l119 297q8 20 29 21h172q20 -1 12 -21l-180 -297q-6 -20 -27 -20h-113q-20 0 -12 20z" />
<glyph unicode="&#xdb;" horiz-adv-x="1185" d="M61 1253v156q0 20 21 21h416q20 0 20 -21v-156q0 -20 -20 -20h-80v-610q0 -426 174 -426t174 426v610h-80q-20 0 -20 20v156q0 20 20 21h418q20 0 20 -21v-156q0 -20 -20 -20h-92v-610q0 -281 -62 -418q-96 -221 -358 -221q-260 0 -359 221q-59 137 -59 418v610h-92 q-20 0 -21 20zM324 1522l184 376h172l184 -376h-145l-125 286l-125 -286h-145z" />
<glyph unicode="&#xdc;" horiz-adv-x="1226" d="M82 1253v156q0 20 20 21h416q20 0 21 -21v-156q0 -20 -21 -20h-80v-610q0 -426 174 -426t174 426v610h-79q-20 0 -21 20v156q0 20 21 21h417q20 0 21 -21v-156q0 -20 -21 -20h-92v-610q0 -281 -61 -418q-96 -221 -359 -221q-260 0 -358 221q-59 137 -59 418v610h-93 q-20 0 -20 20zM313 1630q0 49 35 85t86 36q49 0 84 -36t35 -85t-35 -85t-84 -36q-51 0 -86 36t-35 85zM672 1630q0 49 35.5 85t85.5 36q49 0 83.5 -36t34.5 -85t-34.5 -85t-83.5 -36t-85 36t-36 85z" />
<glyph unicode="&#xdf;" horiz-adv-x="1138" d="M82 20v115q0 20 20 21h76v866q0 182 45 264q78 150 346 150q197 0 283 -88q61 -61 61 -193q0 -119 -67 -201q92 -47 139 -145q51 -111 51 -322q0 -221 -51 -319q-82 -158 -383 -168q-18 0 -18 16l-2 68q-2 16 16 18q117 4 166 113q41 88 41 272q0 186 -41 275 q-51 113 -166 117q-18 0 -18 18l-2 66q0 20 20 20q37 14 60.5 64.5t23.5 107.5q0 70 -34 125t-79 55q-80 0 -131 -96q-33 -63 -32 -217v-1022h-304q-20 0 -20 20z" />
<glyph unicode="&#xe0;" horiz-adv-x="931" d="M82 305q0 121 86 205t223 88h84q55 2 68 49v82q0 49 -35 84t-84 37q-51 0 -86 -34t-55 -66q-10 -16 -29 -2l-98 81q-12 10 -2 27q109 172 307 172q131 -2 221 -93t90 -222v-533h62q37 0 36 -37v-106q0 -37 -36 -37h-199l-51 82q-66 -98 -183 -98q-135 0 -227 93t-92 228z M272 1427q-8 20 13 21h172q20 0 28 -21l119 -297q8 -20 -12 -20h-113q-20 0 -28 20zM313 305q0 -145 117 -145q62 -1 113 67v240q-43 -23 -136.5 -28t-93.5 -134z" />
<glyph unicode="&#xe1;" horiz-adv-x="931" d="M82 305q0 121 86 205t223 88h84q55 2 68 49v82q0 49 -35 84t-84 37q-51 0 -86 -34t-55 -66q-10 -16 -29 -2l-98 81q-12 10 -2 27q109 172 307 172q131 -2 221 -93t90 -222v-533h62q37 0 36 -37v-106q0 -37 -36 -37h-199l-51 82q-66 -98 -183 -98q-135 0 -227 93t-92 228z M313 305q0 -145 117 -145q62 -1 113 67v240q-43 -23 -136.5 -28t-93.5 -134zM336 1130l119 297q8 20 28 21h172q21 -1 13 -21l-181 -297q-6 -20 -26 -20h-113q-20 0 -12 20z" />
<glyph unicode="&#xe2;" horiz-adv-x="931" d="M82 305q0 121 86 205t223 88h84q55 2 68 49v82q0 49 -35 84t-84 37q-51 0 -86 -34t-55 -66q-10 -16 -29 -2l-98 81q-12 10 -2 27q109 172 307 172q131 -2 221 -93t90 -222v-533h62q37 0 36 -37v-106q0 -37 -36 -37h-199l-51 82q-66 -98 -183 -98q-135 0 -227 93t-92 228z M201 1112l184 377h172l184 -377h-145l-125 287l-125 -287h-145zM313 305q0 -145 117 -145q62 -1 113 67v240q-43 -23 -136.5 -28t-93.5 -134z" />
<glyph unicode="&#xe3;" horiz-adv-x="931" d="M82 305q0 121 86 205t223 88h84q55 2 68 49v82q0 49 -35 84t-84 37q-51 0 -86 -34t-55 -66q-10 -16 -29 -2l-98 81q-12 10 -2 27q109 172 307 172q131 -2 221 -93t90 -222v-533h62q37 0 36 -37v-106q0 -37 -36 -37h-199l-51 82q-66 -98 -183 -98q-135 0 -227 93t-92 228z M190 1237l7 10q66 96 151 96q68 0 159 -50t134 -36q18 6 43 43l10 13q12 18 27 4l55 -53q14 -15 2 -31l-8 -12q-66 -94 -149 -95q-68 0 -159 50.5t-134 35.5q-18 -6 -45 -43l-9 -14q-12 -16 -26 -2l-55 53q-14 14 -3 31zM313 305q0 -145 117 -145q62 -1 113 67v240 q-43 -23 -136.5 -28t-93.5 -134z" />
<glyph unicode="&#xe4;" horiz-adv-x="931" d="M82 305q0 121 86 205t223 88h84q55 2 68 49v82q0 49 -35 84t-84 37q-51 0 -86 -34t-55 -66q-10 -16 -29 -2l-98 81q-12 10 -2 27q109 172 307 172q131 -2 221 -93t90 -222v-533h62q37 0 36 -37v-106q0 -37 -36 -37h-199l-51 82q-66 -98 -183 -98q-135 0 -227 93t-92 228z M180 1260q0 49 35 83.5t84 34.5q51 0 86 -34.5t35 -83.5q0 -51 -35 -86t-86 -35q-49 0 -84 34.5t-35 86.5zM313 305q0 -145 117 -145q62 -1 113 67v240q-43 -23 -136.5 -28t-93.5 -134zM539 1260q0 49 34.5 83.5t85.5 34.5q49 0 84 -34.5t35 -83.5q0 -51 -34.5 -86 t-84.5 -35q-51 0 -85.5 34.5t-34.5 86.5z" />
<glyph unicode="&#xe5;" horiz-adv-x="931" d="M82 305q0 121 86 205t223 88h84q55 2 68 49v82q0 49 -35 84t-84 37q-51 0 -86 -34t-55 -66q-10 -16 -29 -2l-98 81q-12 10 -2 27q109 172 307 172q131 -2 221 -93t90 -222v-533h62q37 0 36 -37v-106q0 -37 -36 -37h-199l-51 82q-66 -98 -183 -98q-135 0 -227 93t-92 228z M256 1319q0 84 60.5 144.5t144.5 60.5t144.5 -60.5t60.5 -144.5t-60.5 -144.5t-144.5 -60.5t-144.5 60.5t-60.5 144.5zM313 305q0 -145 117 -145q62 -1 113 67v240q-43 -23 -136.5 -28t-93.5 -134zM362 1319q0 -41 29 -69.5t70 -28.5t69.5 28.5t28.5 69.5t-28.5 69.5 t-69.5 28.5t-70 -28.5t-29 -69.5z" />
<glyph unicode="&#xe6;" horiz-adv-x="1366" d="M82 305q0 121 86 205t223 88h84q49 2 64 37q2 14 4 29v65q0 49 -34 84t-85 37q-51 0 -86 -34t-55 -66q-10 -16 -29 -2l-98 81q-12 10 -2 27q111 174 307 172q129 -2 213 -88q102 92 254 92q215 0 307 -196q49 -103 49 -330q0 -16 -2 -37q0 -37 -35 -37h-479 q10 -258 162 -258q88 0 172 88q27 25 51 4l88 -76q27 -25 2 -51q-102 -156 -313 -155q-199 0 -299 133q-39 -63 -111 -101q-61 -33 -119 -32q-135 0 -227 93t-92 228zM313 305q0 -145 113 -145q78 0 139 88q-27 92 -30 215q-41 -18 -131.5 -23.5t-90.5 -134.5zM770 612h289 q-6 223 -131 224q-141 0 -158 -224z" />
<glyph unicode="&#xe7;" horiz-adv-x="874" d="M82 506q0 213 59 330q102 197 338 196q178 0 303 -135v-186q0 -35 -37 -35h-108q-35 0 -35 35v84q-53 41 -123 41q-164 0 -164 -332q0 -137 21 -205q35 -125 143 -125q86 0 172 88q25 25 51 4l86 -76q30 -24 5 -51q-88 -133 -258 -153l53 -133l-133 -275h-172l168 285 l-52 127q-317 49 -317 516z" />
<glyph unicode="&#xe8;" horiz-adv-x="913" d="M82 506q0 213 59 330q102 197 334 196q215 0 309 -196q47 -103 47 -330v-37q0 -37 -36 -37h-478q8 -258 162 -258q86 0 172 88q25 25 51 4l86 -76q29 -25 5 -51q-102 -156 -314 -155q-397 0 -397 522zM274 1427q-8 20 13 21h172q20 0 28 -21l119 -297q8 -20 -12 -20h-113 q-20 0 -26 20zM319 612h289q-6 223 -133 224q-139 0 -156 -224z" />
<glyph unicode="&#xe9;" horiz-adv-x="913" d="M82 506q0 213 59 330q102 197 334 196q215 0 309 -196q47 -103 47 -330v-37q0 -37 -36 -37h-478q8 -258 162 -258q86 0 172 88q25 25 51 4l86 -76q29 -25 5 -51q-102 -156 -314 -155q-397 0 -397 522zM319 612h289q-6 223 -133 224q-139 0 -156 -224zM338 1130l119 297 q8 20 28 21h172q21 -1 13 -21l-178 -297q-8 -20 -29 -20h-113q-20 0 -12 20z" />
<glyph unicode="&#xea;" horiz-adv-x="913" d="M82 506q0 213 59 330q102 197 334 196q215 0 309 -196q47 -103 47 -330v-37q0 -37 -36 -37h-478q8 -258 162 -258q86 0 172 88q25 25 51 4l86 -76q29 -25 5 -51q-102 -156 -314 -155q-397 0 -397 522zM203 1112l184 377h172l184 -377h-145l-125 287l-125 -287h-145z M319 612h289q-6 223 -133 224q-139 0 -156 -224z" />
<glyph unicode="&#xeb;" horiz-adv-x="913" d="M82 506q0 213 59 330q102 197 334 196q215 0 309 -196q47 -103 47 -330v-37q0 -37 -36 -37h-478q8 -258 162 -258q86 0 172 88q25 25 51 4l86 -76q29 -25 5 -51q-102 -156 -314 -155q-397 0 -397 522zM182 1260q0 49 35 83.5t84 34.5q51 0 86 -34.5t35 -83.5 q0 -51 -35 -86t-86 -35q-49 0 -84 34.5t-35 86.5zM319 612h289q-6 223 -133 224q-139 0 -156 -224zM541 1260q0 49 35.5 83.5t85.5 34.5q49 0 83.5 -34.5t34.5 -83.5q0 -51 -34.5 -86t-83.5 -35t-85 34.5t-36 86.5z" />
<glyph unicode="&#xec;" horiz-adv-x="649" d="M61 37v106q0 37 37 37h109v654h-109q-37 0 -37 36v109q0 35 37 35h344v-834h111q35 0 35 -37v-106q0 -37 -35 -37h-455q-37 0 -37 37zM145 1427q-8 20 13 21h172q20 0 28 -21l121 -297q8 -20 -14 -20h-113q-20 0 -26 20z" />
<glyph unicode="&#xed;" horiz-adv-x="649" d="M61 37v106q0 37 37 37h109v654h-109q-37 0 -37 36v109q0 35 37 35h344v-834h111q35 0 35 -37v-106q0 -37 -35 -37h-455q-37 0 -37 37zM166 1130l121 297q8 20 26 21h172q21 -1 15 -21l-181 -297q-8 -20 -28 -20h-111q-23 0 -14 20z" />
<glyph unicode="&#xee;" horiz-adv-x="663" d="M51 1112l185 377h172l184 -377h-146l-124 287l-125 -287h-146zM76 37v106q0 37 35 37h110v654h-110q-35 0 -35 36v109q0 35 35 35h346v-834h110q35 0 35 -37v-106q0 -37 -35 -37h-456q-35 0 -35 37z" />
<glyph unicode="&#xef;" horiz-adv-x="702" d="M41 1260q0 49 35 83.5t86 34.5q49 0 84 -34.5t35 -83.5q0 -51 -35 -86t-84 -35q-51 0 -86 34.5t-35 86.5zM90 37v106q0 37 35 37h111v654h-111q-35 0 -35 36v109q0 35 35 35h346v-834h109q37 0 36 -37v-106q0 -37 -36 -37h-455q-35 0 -35 37zM399 1260q0 49 36 83.5 t85 34.5t85 -34.5t36 -83.5q0 -51 -36 -86t-85 -35t-85 34.5t-36 86.5z" />
<glyph unicode="&#xf1;" d="M61 37v106q0 37 37 37h62v656h-62q-37 0 -37 34v109q0 37 37 37h215l41 -88v-21q164 127 236 125q156 0 246 -176q45 -90 45 -291v-385h63q35 0 35 -37v-106q0 -37 -35 -37h-293v565q0 168 -22 219q-27 59 -58 60q-35 0 -180 -123v-721h-293q-37 0 -37 37zM219 1237l8 10 q66 96 152 96q66 0 157 -50t134 -36q18 6 45 43l10 13q10 18 27 4l53 -53q14 -15 4 -31l-8 -12q-66 -94 -152 -95q-68 0 -158 50.5t-133 35.5q-18 -6 -45 -43l-10 -14q-12 -16 -27 -2l-55 53q-14 14 -2 31z" />
<glyph unicode="&#xf2;" horiz-adv-x="927" d="M82 510q0 205 55 319q96 201 328 201q229 0 323 -201q58 -118 58 -319q0 -207 -58 -326q-94 -199 -323 -200q-109 0 -196 53t-132 147q-55 113 -55 326zM283 1427q-8 20 12 21h172q20 0 29 -21l118 -297q10 -20 -12 -20h-113q-20 0 -26 20zM313 510q0 -338 152 -338 q149 2 149 338q0 166 -34 242q-39 86 -115 88q-152 0 -152 -330z" />
<glyph unicode="&#xf3;" horiz-adv-x="927" d="M82 510q0 205 55 319q96 201 328 201q229 0 323 -201q58 -118 58 -319q0 -207 -58 -326q-94 -199 -323 -200q-109 0 -196 53t-132 147q-55 113 -55 326zM313 510q0 -338 152 -338q149 2 149 338q0 166 -34 242q-39 86 -115 88q-152 0 -152 -330zM319 1130l119 297 q8 20 29 21h172q20 -1 12 -21l-178 -297q-8 -20 -29 -20h-112q-20 0 -13 20z" />
<glyph unicode="&#xf4;" horiz-adv-x="927" d="M82 510q0 205 55 319q96 201 328 201q229 0 323 -201q58 -118 58 -319q0 -207 -58 -326q-94 -199 -323 -200q-109 0 -196 53t-132 147q-55 113 -55 326zM184 1112l185 377h172l184 -377h-145l-125 287l-125 -287h-146zM313 510q0 -338 152 -338q149 2 149 338 q0 166 -34 242q-39 86 -115 88q-152 0 -152 -330z" />
<glyph unicode="&#xf5;" horiz-adv-x="927" d="M82 510q0 205 55 319q96 201 328 201q229 0 323 -201q58 -118 58 -319q0 -207 -58 -326q-94 -199 -323 -200q-109 0 -196 53t-132 147q-55 113 -55 326zM174 1237l8 10q66 96 152 96q66 0 157 -50t134 -36q18 6 45 43l8 13q12 18 29 4l53 -53q14 -15 2 -31l-6 -12 q-66 -94 -152 -95q-68 0 -158 50.5t-135 35.5q-18 -6 -43 -43l-10 -14q-12 -16 -27 -2l-55 53q-14 14 -2 31zM313 510q0 -338 152 -338q149 2 149 338q0 166 -34 242q-39 86 -115 88q-152 0 -152 -330z" />
<glyph unicode="&#xf6;" horiz-adv-x="927" d="M82 510q0 205 55 319q96 201 328 201q229 0 323 -201q58 -118 58 -319q0 -207 -58 -326q-94 -199 -323 -200q-109 0 -196 53t-132 147q-55 113 -55 326zM164 1260q0 49 34.5 83.5t84.5 34.5q51 0 85.5 -34.5t34.5 -83.5q0 -51 -34.5 -86t-85.5 -35q-49 0 -84 34.5 t-35 86.5zM313 510q0 -338 152 -338q149 2 149 338q0 166 -34 242q-39 86 -115 88q-152 0 -152 -330zM522 1260q0 49 36 83.5t85 34.5t84 -34.5t35 -83.5q0 -51 -35 -86t-84 -35t-85 34.5t-36 86.5z" />
<glyph unicode="&#xf7;" horiz-adv-x="915" d="M92 641v156q0 20 21 20h690q20 0 20 -20v-156q0 -20 -20 -20h-690q-20 0 -21 20zM322 420q0 55 39.5 94t95.5 39q55 0 95 -39t40 -94q0 -57 -39 -97t-96 -40q-55 0 -95 39.5t-40 97.5zM322 1022q0 55 39.5 94t95.5 39q55 0 95 -39t40 -94q0 -57 -39 -97t-96 -40 q-55 0 -95 40t-40 97z" />
<glyph unicode="&#xf8;" horiz-adv-x="927" d="M82 510q0 205 55 319q96 201 328 201q55 0 106 -16l13 37q6 18 24 18h99q18 0 12 -18l-31 -95q63 -49 100 -127q58 -118 58 -319q0 -207 -58 -326q-94 -201 -323 -200q-53 0 -98 12l-23 -66q-6 -18 -25 -18h-98q-18 0 -12 18l41 119q-74 53 -113 135q-55 113 -55 326z M313 510q0 -129 21 -205l176 522q-23 10 -45 13q-152 2 -152 -330zM426 178q18 -6 39 -6q149 2 149 338q0 115 -16 180z" />
<glyph unicode="&#xf9;" d="M61 870v109q0 35 37 35h293v-563q0 -170 21 -222q27 -59 59 -59q33 0 180 123v541h-43q-37 0 -37 36v109q0 35 37 35h273v-834h63q35 0 35 -37v-108q0 -35 -35 -35h-215l-43 86v41q-156 -145 -235 -145q-156 0 -244 176q-47 92 -47 293v383h-62q-37 0 -37 36zM311 1427 q-6 20 15 21h172q18 0 26 -21l121 -297q8 -20 -12 -20h-113q-20 0 -28 20z" />
<glyph unicode="&#xfa;" d="M61 870v109q0 35 37 35h293v-563q0 -170 21 -222q27 -59 59 -59q33 0 180 123v541h-43q-37 0 -37 36v109q0 35 37 35h273v-834h63q35 0 35 -37v-108q0 -35 -35 -35h-215l-43 86v41q-156 -145 -235 -145q-156 0 -244 176q-47 92 -47 293v383h-62q-37 0 -37 36zM322 1130 l118 297q8 20 29 21h172q20 -1 12 -21l-180 -297q-6 -20 -27 -20h-112q-23 0 -12 20z" />
<glyph unicode="&#xfb;" d="M61 870v109q0 35 37 35h293v-563q0 -170 21 -222q27 -59 59 -59q33 0 180 123v541h-43q-37 0 -37 36v109q0 35 37 35h273v-834h63q35 0 35 -37v-108q0 -35 -35 -35h-215l-43 86v41q-156 -145 -235 -145q-156 0 -244 176q-47 92 -47 293v383h-62q-37 0 -37 36zM246 1112 l184 377h172l184 -377h-145l-125 287l-125 -287h-145z" />
<glyph unicode="&#xfc;" d="M61 870v109q0 35 37 35h293v-563q0 -170 21 -222q27 -59 59 -59q33 0 180 123v541h-43q-37 0 -37 36v109q0 35 37 35h273v-834h63q35 0 35 -37v-108q0 -35 -35 -35h-215l-43 86v41q-156 -145 -235 -145q-156 0 -244 176q-47 92 -47 293v383h-62q-37 0 -37 36zM209 1260 q0 49 35 83.5t84 34.5q51 0 86 -34.5t35 -83.5q0 -51 -35 -86t-86 -35q-49 0 -84 34.5t-35 86.5zM567 1260q0 49 35 83.5t86 34.5q49 0 84 -34.5t35 -83.5q0 -51 -35 -86t-84 -35q-51 0 -86 34.5t-35 86.5z" />
<glyph unicode="&#xff;" horiz-adv-x="1003" d="M31 870v109q0 35 37 35h256l131 -527l47 -272l47 272l131 527h256q37 0 37 -35v-109q0 -37 -37 -36h-66l-331 -1100q-33 -113 -111 -156q-63 -35 -192 -35q-37 0 -37 37v109q0 35 37 35q74 0 96 12q33 16 49 78l45 186h-41l-254 834h-63q-37 0 -37 36zM207 1260 q0 49 34.5 83.5t84.5 34.5q51 0 85.5 -34.5t34.5 -83.5q0 -51 -34.5 -86t-85.5 -35q-49 0 -84 34.5t-35 86.5zM565 1260q0 49 35 83.5t86 34.5q49 0 84 -34.5t35 -83.5q0 -51 -35 -86t-84 -35q-51 0 -86 34.5t-35 86.5z" />
<glyph unicode="&#x152;" horiz-adv-x="1667" d="M82 715q0 309 86 479q131 252 399 252q137 0 244 -70v54h754v-338q0 -20 -21 -21h-155q-20 0 -21 21v114h-311v-362h389q20 0 20 -21v-155q0 -20 -20 -21h-389v-424h311v115q0 20 21 20h155q20 0 21 -20v-338h-754v55q-106 -72 -244 -71q-270 0 -399 254q-86 174 -86 477 zM330 715q0 -250 61 -379q68 -139 176 -139q111 0 178 139q60 125 60 379t-60 381q-66 137 -178 137q-111 0 -176 -137q-61 -129 -61 -381z" />
<glyph unicode="&#x153;" horiz-adv-x="1447" d="M82 510q0 205 55 319q96 201 328 201q162 0 266 -115q106 117 279 117q215 0 309 -196q47 -103 47 -330v-37q0 -37 -37 -37h-479q10 -258 164 -258q86 0 172 88q25 25 51 4l86 -76q27 -25 4 -51q-102 -156 -313 -155q-184 0 -285 112q-102 -111 -264 -112q-109 0 -196 53 t-132 147q-55 113 -55 326zM313 510q0 -338 152 -338q149 2 149 338q0 166 -34 242q-39 86 -115 88q-152 0 -152 -330zM852 612h291q-8 223 -133 224q-139 0 -158 -224z" />
<glyph unicode="&#x178;" horiz-adv-x="1069" d="M31 1253v156q0 20 20 21h273l188 -617l23 -176l20 176l188 617h275q20 0 20 -21v-156q0 -20 -20 -20h-98l-263 -741v-295h125q20 0 21 -21v-156q0 -20 -21 -20h-495q-20 0 -21 20v156q0 20 21 21h125v295l-262 741h-99q-20 0 -20 20zM238 1630q0 49 34.5 85t83.5 36 q51 0 86 -36t35 -85t-34.5 -85t-86.5 -36q-49 0 -83.5 36t-34.5 85zM596 1630q0 49 35 85t86 36q49 0 84 -36t35 -85t-35 -85t-84 -36q-51 0 -86 36t-35 85z" />
<glyph unicode="&#x2c6;" horiz-adv-x="942" d="M201 1112l184 377h172l184 -377h-145l-125 287l-125 -287h-145z" />
<glyph unicode="&#x2dc;" horiz-adv-x="942" d="M176 1237l8 10q66 96 152 96q68 0 158 -50t133 -36q18 6 45 43l10 13q12 18 27 4l53 -53q16 -15 4 -31l-8 -12q-66 -94 -152 -95q-68 0 -158 50.5t-133 35.5q-18 -6 -45 -43l-10 -14q-12 -16 -27 -2l-53 53q-16 14 -4 31z" />
<glyph unicode="&#x2000;" horiz-adv-x="958" />
<glyph unicode="&#x2001;" horiz-adv-x="1917" />
<glyph unicode="&#x2002;" horiz-adv-x="958" />
<glyph unicode="&#x2003;" horiz-adv-x="1917" />
<glyph unicode="&#x2004;" horiz-adv-x="639" />
<glyph unicode="&#x2005;" horiz-adv-x="479" />
<glyph unicode="&#x2006;" horiz-adv-x="319" />
<glyph unicode="&#x2007;" horiz-adv-x="319" />
<glyph unicode="&#x2008;" horiz-adv-x="239" />
<glyph unicode="&#x2009;" horiz-adv-x="383" />
<glyph unicode="&#x200a;" horiz-adv-x="106" />
<glyph unicode="&#x2010;" horiz-adv-x="696" d="M92 641v156q0 20 21 20h471q20 0 20 -20v-156q0 -20 -20 -20h-471q-20 0 -21 20z" />
<glyph unicode="&#x2011;" horiz-adv-x="696" d="M92 641v156q0 20 21 20h471q20 0 20 -20v-156q0 -20 -20 -20h-471q-20 0 -21 20z" />
<glyph unicode="&#x2012;" horiz-adv-x="696" d="M92 641v156q0 20 21 20h471q20 0 20 -20v-156q0 -20 -20 -20h-471q-20 0 -21 20z" />
<glyph unicode="&#x2013;" horiz-adv-x="952" d="M92 477v156q0 20 21 20h725q23 0 22 -20v-156q0 -20 -22 -20h-725q-20 0 -21 20z" />
<glyph unicode="&#x2014;" horiz-adv-x="1257" d="M92 477v156q0 20 21 20h1032q20 0 20 -20v-156q0 -20 -20 -20h-1032q-20 0 -21 20z" />
<glyph unicode="&#x2018;" horiz-adv-x="425" d="M102 1491h228l14 -401q2 -39 -19.5 -66t-54.5 -27q-82 0 -98 93z" />
<glyph unicode="&#x2019;" horiz-adv-x="425" d="M82 1090l14 401h228l-70 -401q-16 -92 -98 -93q-33 0 -54.5 27t-19.5 66z" />
<glyph unicode="&#x201a;" horiz-adv-x="425" d="M92 -178l14 401h228l-70 -401q-16 -92 -98 -92q-33 0 -54.5 26.5t-19.5 65.5z" />
<glyph unicode="&#x201c;" horiz-adv-x="714" d="M82 1491h227l15 -401q2 -39 -19.5 -66t-54.5 -27q-82 0 -98 93zM391 1491h227l15 -401q2 -39 -19.5 -66t-54.5 -27q-82 0 -98 93z" />
<glyph unicode="&#x201d;" horiz-adv-x="714" d="M82 1090l14 401h228l-70 -401q-16 -92 -98 -93q-33 0 -54.5 27t-19.5 66zM391 1090l15 401h227l-70 -401q-16 -92 -98 -93q-33 0 -54.5 27t-19.5 66z" />
<glyph unicode="&#x201e;" horiz-adv-x="694" d="M72 -178l14 401h227l-69 -401q-16 -92 -99 -92q-33 0 -54 26.5t-19 65.5zM381 -178l14 401h228l-70 -401q-16 -92 -98 -92q-33 0 -54.5 26.5t-19.5 65.5z" />
<glyph unicode="&#x2022;" horiz-adv-x="806" d="M102 692q0 125 88.5 213t212.5 88q125 0 213.5 -88t88.5 -213t-88.5 -213t-213.5 -88t-213 88t-88 213z" />
<glyph unicode="&#x2026;" horiz-adv-x="1443" d="M123 125q0 72 51 123t125 51q72 0 122 -51t50 -123t-50 -123t-122 -51q-74 0 -125 51t-51 123zM549 125q0 72 50 123t124 51q72 0 123 -51t51 -123t-51 -123t-123 -51t-123 51t-51 123zM973 125q0 72 51 123t125 51q72 0 122 -51t50 -123t-50 -123t-122 -51 q-74 0 -125 51t-51 123z" />
<glyph unicode="&#x202f;" horiz-adv-x="383" />
<glyph unicode="&#x2039;" horiz-adv-x="458" d="M72 565v238l274 348v-250l-211 -217l211 -219v-250z" />
<glyph unicode="&#x203a;" horiz-adv-x="458" d="M113 215v250l211 219l-211 217v250l274 -348v-238z" />
<glyph unicode="&#x205f;" horiz-adv-x="479" />
<glyph unicode="&#x2122;" horiz-adv-x="1562" d="M82 1214v209h534v-209q0 -31 -30 -30h-51q-31 0 -31 30v95h-96v-600h57q31 0 31 -31v-51q0 -31 -31 -31h-234q-29 0 -28 31v51q0 31 28 31h60v600h-96v-95q0 -31 -31 -30h-51q-31 0 -31 30zM639 627v51q0 31 31 31h32q16 285 33 602h-49q-31 0 -31 30v52q0 31 31 30h152 l202 -510l201 510h152q31 0 30 -30v-52q0 -31 -30 -30h-47q14 -287 32 -602h31q31 0 31 -31v-51q0 -25 -29 -31h-213q-27 6 -27 31v51q0 31 31 31h60l-23 417l-166 -405h-72l-161 401l-23 -413h60q31 0 30 -31v-51q0 -31 -30 -31h-207q-31 0 -31 31z" />
<glyph unicode="&#xe000;" horiz-adv-x="1013" d="M0 0v1014h1014v-1014h-1014z" />
</font>
</defs>
</svg>
